<svg width="46" height="22" viewBox="0 0 46 22" fill="none" xmlns="http://www.w3.org/2000/svg">
<path d="M0.738281 6.71484C0.777344 7.47656 1.06836 8.07812 1.61133 8.51953C2.1543 8.95703 2.875 9.17578 3.77344 9.17578C4.38281 9.17578 4.91016 9.07227 5.35547 8.86523C5.80469 8.6582 6.15039 8.36523 6.39258 7.98633C6.63867 7.60742 6.76172 7.1582 6.76172 6.63867C6.76172 5.99805 6.57617 5.48828 6.20508 5.10938C5.83789 4.73047 5.24414 4.44336 4.42383 4.24805L3.65039 4.05469C3.12695 3.92969 2.74805 3.76172 2.51367 3.55078C2.2793 3.33594 2.16211 3.05664 2.16211 2.71289C2.16211 2.31055 2.30469 1.99609 2.58984 1.76953C2.87891 1.54297 3.27734 1.42969 3.78516 1.42969C4.25781 1.42969 4.63867 1.54688 4.92773 1.78125C5.2207 2.01172 5.39062 2.33203 5.4375 2.74219H6.60938C6.58984 2.26563 6.45703 1.84961 6.21094 1.49414C5.96875 1.13867 5.63867 0.863281 5.2207 0.667969C4.80664 0.46875 4.32422 0.369141 3.77344 0.369141C3.19922 0.369141 2.69922 0.46875 2.27344 0.667969C1.84766 0.867188 1.51758 1.14844 1.2832 1.51172C1.05273 1.875 0.9375 2.30469 0.9375 2.80078C0.9375 3.41406 1.12305 3.91602 1.49414 4.30664C1.86523 4.69727 2.43945 4.98828 3.2168 5.17969L3.99023 5.36133C4.53711 5.49414 4.93164 5.66797 5.17383 5.88281C5.41602 6.09766 5.53711 6.37695 5.53711 6.7207C5.53711 7.14258 5.37891 7.48047 5.0625 7.73438C4.74609 7.98828 4.32031 8.11523 3.78516 8.11523C3.25 8.11523 2.81445 7.99219 2.47852 7.74609C2.14648 7.49609 1.95898 7.15234 1.91602 6.71484H0.738281ZM7.47164 9H8.64937V5.26758C8.64937 4.75195 8.79977 4.33789 9.10055 4.02539C9.40133 3.70898 9.79977 3.55078 10.2959 3.55078C10.7685 3.55078 11.1181 3.68359 11.3447 3.94922C11.5752 4.21094 11.6904 4.61328 11.6904 5.15625V9H12.8623V4.86914C12.8623 4.10352 12.6787 3.51758 12.3115 3.11133C11.9443 2.70508 11.413 2.50195 10.7177 2.50195C10.2373 2.50195 9.82125 2.60937 9.46969 2.82422C9.11812 3.03516 8.86031 3.33789 8.69625 3.73242H8.60836V0.123047H7.47164V9ZM15.9159 9.10547C16.3652 9.10547 16.7538 9.01758 17.082 8.8418C17.414 8.66211 17.6562 8.40625 17.8085 8.07422H17.9198V9.00586H19.039V4.64062C19.039 3.96875 18.828 3.44922 18.4062 3.08203C17.9882 2.71094 17.3925 2.52539 16.6191 2.52539C16.162 2.52539 15.7519 2.59961 15.3886 2.74805C15.0292 2.89648 14.7382 3.10352 14.5155 3.36914C14.2968 3.63477 14.1679 3.94336 14.1288 4.29492H15.2773C15.3554 4.04492 15.5097 3.84961 15.7402 3.70898C15.9706 3.56836 16.2558 3.49805 16.5956 3.49805C17.0058 3.49805 17.3202 3.59766 17.539 3.79688C17.7616 3.99609 17.873 4.27734 17.873 4.64062V5.20312L16.1972 5.29102C15.455 5.33398 14.8847 5.51953 14.4862 5.84766C14.0878 6.17188 13.8886 6.61719 13.8886 7.18359C13.8886 7.76172 14.0741 8.22656 14.4452 8.57812C14.8163 8.92969 15.3066 9.10547 15.9159 9.10547ZM16.2792 8.12695C15.9042 8.12695 15.6073 8.03711 15.3886 7.85742C15.1698 7.67773 15.0605 7.43555 15.0605 7.13086C15.0605 6.49805 15.4921 6.1582 16.3554 6.11133L17.873 6.03516V6.70898C17.873 6.97852 17.8027 7.2207 17.662 7.43555C17.5253 7.65039 17.3359 7.82031 17.0937 7.94531C16.8554 8.06641 16.5839 8.12695 16.2792 8.12695ZM20.3993 9H21.5712V5.25586C21.5712 4.74023 21.7216 4.32617 22.0223 4.01367C22.3231 3.69727 22.7177 3.53906 23.2059 3.53906C23.6786 3.53906 24.0263 3.67188 24.2489 3.9375C24.4755 4.19922 24.5888 4.60352 24.5888 5.15039V9H25.7665V4.85742C25.7665 4.08789 25.5829 3.50195 25.2157 3.09961C24.8524 2.69336 24.3231 2.49023 23.6278 2.49023C23.1513 2.49023 22.7391 2.59766 22.3915 2.8125C22.0438 3.02734 21.786 3.33203 21.618 3.72656H21.536V2.61328H20.3993V9ZM29.6112 3.45117C30.0955 3.45117 30.4725 3.61328 30.742 3.9375C31.0155 4.25781 31.1522 4.70312 31.1522 5.27344H28.0233C28.0233 4.69922 28.1639 4.25195 28.4452 3.93164C28.7264 3.61133 29.1151 3.45117 29.6112 3.45117ZM31.1639 7.3125C31.0858 7.57422 30.9139 7.78125 30.6483 7.93359C30.3827 8.08203 30.0604 8.15625 29.6815 8.15625C29.1776 8.15625 28.7752 7.99609 28.4745 7.67578C28.1737 7.35547 28.0233 6.92578 28.0233 6.38672V6.09961H32.3065V5.4082C32.3065 4.80273 32.1991 4.2832 31.9842 3.84961C31.7694 3.41211 31.4608 3.07617 31.0584 2.8418C30.66 2.60742 30.1815 2.49023 29.6229 2.49023C29.0721 2.49023 28.5897 2.60742 28.1756 2.8418C27.7616 3.07227 27.4393 3.39648 27.2088 3.81445C26.9823 4.22852 26.869 4.7168 26.869 5.2793V6.25195C26.869 7.16211 27.1151 7.86914 27.6073 8.37305C28.0995 8.87305 28.7928 9.12305 29.6873 9.12305C30.1483 9.12305 30.5643 9.04688 30.9354 8.89453C31.3065 8.74219 31.6112 8.53125 31.8495 8.26172C32.0877 7.98828 32.2342 7.67188 32.2889 7.3125H31.1639ZM10.2021 13.8262L11.3447 19H12.4638L13.8759 10.5449H12.7392L12.2822 13.8027L11.8252 17.2773H11.749L10.6884 12.4785H9.64547L8.58492 17.2773H8.50875L8.05172 13.8027L7.59469 10.5449H6.45797L7.87008 19H8.98922L10.1318 13.8262H10.2021ZM15.9159 19.1055C16.3652 19.1055 16.7538 19.0176 17.082 18.8418C17.414 18.6621 17.6562 18.4062 17.8085 18.0742H17.9198V19.0059H19.039V14.6406C19.039 13.9688 18.828 13.4492 18.4062 13.082C17.9882 12.7109 17.3925 12.5254 16.6191 12.5254C16.162 12.5254 15.7519 12.5996 15.3886 12.748C15.0292 12.8965 14.7382 13.1035 14.5155 13.3691C14.2968 13.6348 14.1679 13.9434 14.1288 14.2949H15.2773C15.3554 14.0449 15.5097 13.8496 15.7402 13.709C15.9706 13.5684 16.2558 13.498 16.5956 13.498C17.0058 13.498 17.3202 13.5977 17.539 13.7969C17.7616 13.9961 17.873 14.2773 17.873 14.6406V15.2031L16.1972 15.291C15.455 15.334 14.8847 15.5195 14.4862 15.8477C14.0878 16.1719 13.8886 16.6172 13.8886 17.1836C13.8886 17.7617 14.0741 18.2266 14.4452 18.5781C14.8163 18.9297 15.3066 19.1055 15.9159 19.1055ZM16.2792 18.127C15.9042 18.127 15.6073 18.0371 15.3886 17.8574C15.1698 17.6777 15.0605 17.4355 15.0605 17.1309C15.0605 16.498 15.4921 16.1582 16.3554 16.1113L17.873 16.0352V16.709C17.873 16.9785 17.8027 17.2207 17.662 17.4355C17.5253 17.6504 17.3359 17.8203 17.0937 17.9453C16.8554 18.0664 16.5839 18.127 16.2792 18.127ZM20.6805 14.377C20.6805 15.3027 21.2626 15.8965 22.4266 16.1582L23.3817 16.375C23.7645 16.4609 24.036 16.5723 24.1962 16.709C24.3602 16.8418 24.4423 17.0254 24.4423 17.2598C24.4423 17.5371 24.3231 17.7598 24.0848 17.9277C23.8466 18.0918 23.5263 18.1738 23.1239 18.1738C22.7372 18.1738 22.4188 18.0996 22.1688 17.9512C21.9188 17.7988 21.7606 17.5879 21.6942 17.3184H20.5106C20.5614 17.8809 20.8153 18.3223 21.2723 18.6426C21.7333 18.959 22.3407 19.1172 23.0946 19.1172C23.872 19.1172 24.493 18.9375 24.9579 18.5781C25.4227 18.2188 25.6552 17.7363 25.6552 17.1309C25.6552 16.6621 25.5087 16.2871 25.2157 16.0059C24.9227 15.7246 24.4598 15.5137 23.827 15.373L22.9013 15.168C22.5302 15.0859 22.2606 14.9766 22.0927 14.8398C21.9286 14.7031 21.8466 14.5215 21.8466 14.2949C21.8466 14.0293 21.9579 13.8164 22.1805 13.6562C22.4071 13.4961 22.7079 13.416 23.0829 13.416C23.4345 13.416 23.7274 13.4922 23.9618 13.6445C24.1962 13.793 24.3388 13.998 24.3895 14.2598H25.5145C25.4598 13.7051 25.2177 13.2715 24.788 12.959C24.3583 12.6426 23.7958 12.4844 23.1005 12.4844C22.37 12.4844 21.7841 12.6562 21.3427 13C20.9013 13.3438 20.6805 13.8027 20.6805 14.377ZM32.3416 19V18.0508H30.2909V10.123H27.0272V11.0781H29.119V18.0508H26.9803V19H32.3416ZM36.0691 13.4512C36.5535 13.4512 36.9305 13.6133 37.2 13.9375C37.4734 14.2578 37.6102 14.7031 37.6102 15.2734H34.4813C34.4813 14.6992 34.6219 14.252 34.9031 13.9316C35.1844 13.6113 35.573 13.4512 36.0691 13.4512ZM37.6219 17.3125C37.5438 17.5742 37.3719 17.7812 37.1063 17.9336C36.8406 18.082 36.5184 18.1562 36.1395 18.1562C35.6355 18.1562 35.2332 17.9961 34.9324 17.6758C34.6316 17.3555 34.4813 16.9258 34.4813 16.3867V16.0996H38.7645V15.4082C38.7645 14.8027 38.657 14.2832 38.4422 13.8496C38.2273 13.4121 37.9188 13.0762 37.5164 12.8418C37.118 12.6074 36.6395 12.4902 36.0809 12.4902C35.5301 12.4902 35.0477 12.6074 34.6336 12.8418C34.2195 13.0723 33.8973 13.3965 33.6668 13.8145C33.4402 14.2285 33.327 14.7168 33.327 15.2793V16.252C33.327 17.1621 33.573 17.8691 34.0652 18.373C34.5574 18.873 35.2508 19.123 36.1453 19.123C36.6063 19.123 37.0223 19.0469 37.3934 18.8945C37.7645 18.7422 38.0691 18.5312 38.3074 18.2617C38.5457 17.9883 38.6922 17.6719 38.7469 17.3125H37.6219ZM40.6345 21.2852C41.0681 21.2852 41.4314 21.2207 41.7244 21.0918C42.0213 20.9629 42.2771 20.7461 42.492 20.4414C42.7068 20.1367 42.906 19.7207 43.0896 19.1934L45.4334 12.6133H44.1853L42.5154 17.8398H42.4334L40.7517 12.6133H39.4627L41.7888 19.0469L41.6892 19.3633C41.572 19.6992 41.4216 19.9375 41.238 20.0781C41.0584 20.2227 40.8142 20.2949 40.5056 20.2949C40.4588 20.2949 40.3963 20.293 40.3181 20.2891C40.24 20.2852 40.1853 20.2812 40.1541 20.2773V21.2676C40.1931 21.2715 40.2595 21.2754 40.3533 21.2793C40.4509 21.2832 40.5447 21.2852 40.6345 21.2852Z" fill="black"/>
</svg>
